<svg width="12" height="8" viewBox="0 0 12 8" fill="none" xmlns="http://www.w3.org/2000/svg">
<path d="M11 5.40994L6.70999 1.16994C6.61703 1.07622 6.50643 1.00182 6.38457 0.951053C6.26271 0.900284 6.13201 0.874146 5.99999 0.874146C5.86798 0.874146 5.73728 0.900284 5.61542 0.951053C5.49356 1.00182 5.38296 1.07622 5.28999 1.16994L1.04999 5.40994C0.956266 5.50291 0.881872 5.61351 0.831103 5.73537C0.780334 5.85723 0.754196 5.98793 0.754196 6.11994C0.754196 6.25196 0.780334 6.38266 0.831103 6.50452C0.881872 6.62638 0.956266 6.73698 1.04999 6.82994C1.23736 7.01619 1.49081 7.12074 1.75499 7.12074C2.01918 7.12074 2.27263 7.01619 2.45999 6.82994L5.99999 3.28994L9.53999 6.82994C9.72625 7.01469 9.97765 7.11884 10.24 7.11994C10.3716 7.1207 10.5021 7.09548 10.6239 7.04572C10.7457 6.99595 10.8566 6.92263 10.95 6.82994C11.0471 6.74033 11.1254 6.63236 11.1805 6.51228C11.2356 6.39221 11.2664 6.2624 11.2711 6.13037C11.2757 5.99833 11.2541 5.86669 11.2076 5.74303C11.1611 5.61938 11.0905 5.50617 11 5.40994Z"/>
</svg>
