<svg fill="none" viewBox="0 0 16 16"><g clip-path="url(#a)"><path fill="#fff" d="M7.5 2.5V2a.5.5 0 1 1 1 0v.5a.5.5 0 1 1-1 0ZM8 4a4 4 0 1 0 0 8 4 4 0 0 0 0-8Zm-4.354.354a.5.5 0 1 0 .708-.708l-.5-.5a.5.5 0 1 0-.708.708l.5.5Zm0 7.292-.5.5a.5.5 0 0 0 .708.708l.5-.5a.501.501 0 0 0-.708-.708ZM12 4.5a.5.5 0 0 0 .354-.146l.5-.5a.5.5 0 0 0-.708-.708l-.5.5A.5.5 0 0 0 12 4.5Zm.354 7.146a.5.5 0 0 0-.708.708l.5.5a.501.501 0 0 0 .708-.708l-.5-.5ZM2.5 7.5H2a.5.5 0 1 0 0 1h.5a.5.5 0 1 0 0-1ZM8 13a.5.5 0 0 0-.5.5v.5a.5.5 0 0 0 1 0v-.5A.5.5 0 0 0 8 13Zm6-5.5h-.5a.5.5 0 0 0 0 1h.5a.5.5 0 0 0 0-1Z"/></g><defs><clipPath id="a"><path fill="#fff" d="M0 0h16v16H0z"/></clipPath></defs></svg>